<svg width="77" height="77" viewBox="0 0 77 77" fill="none" xmlns="http://www.w3.org/2000/svg">
<path d="M30.1583 25.6667C27.3272 25.6667 25.025 27.9689 25.025 30.8C25.025 33.6311 27.3272 35.9333 30.1583 35.9333C32.9894 35.9333 35.2916 33.6311 35.2916 30.8C35.2917 27.9689 32.9894 25.6667 30.1583 25.6667ZM30.1583 33.3667C28.7434 33.3667 27.5916 32.215 27.5916 30.8C27.5916 29.3851 28.7433 28.2333 30.1583 28.2333C31.5733 28.2333 32.725 29.3851 32.725 30.8C32.725 32.2149 31.5733 33.3667 30.1583 33.3667Z" fill="white"/>
<path d="M31.0695 29.8965C31.0056 29.8325 30.9405 29.7813 30.8766 29.7298C30.8002 29.691 30.7224 29.6396 30.646 29.6145C30.5682 29.5882 30.4919 29.563 30.4016 29.5367C30.2475 29.5116 30.0682 29.5116 29.9016 29.5367C29.8252 29.563 29.7474 29.5882 29.671 29.6145C29.5933 29.6396 29.5169 29.6909 29.4391 29.7298C29.3752 29.7813 29.3113 29.8325 29.2474 29.8965C29.0155 30.127 28.8752 30.4616 28.8752 30.795C28.8752 31.1409 29.003 31.4617 29.2474 31.7061C29.3752 31.8213 29.5169 31.9242 29.671 31.9881C29.8252 32.052 29.9918 32.0783 30.1586 32.0783C30.3254 32.0783 30.492 32.052 30.6462 31.9881C30.8003 31.9242 30.9406 31.8215 31.0698 31.7061C31.313 31.4617 31.442 31.1408 31.442 30.795C31.4417 30.4616 31.3 30.127 31.0695 29.8965Z" fill="white"/>
<path d="M45.5583 25.6667C42.7272 25.6667 40.425 27.9689 40.425 30.8C40.425 33.6311 42.7272 35.9333 45.5583 35.9333C48.3894 35.9333 50.6916 33.6311 50.6916 30.8C50.6917 27.9689 48.3894 25.6667 45.5583 25.6667ZM45.5583 33.3667C44.1434 33.3667 42.9916 32.215 42.9916 30.8C42.9916 29.3851 44.1433 28.2333 45.5583 28.2333C46.9732 28.2333 48.125 29.385 48.125 30.8C48.125 32.2149 46.9733 33.3667 45.5583 33.3667Z" fill="white"/>
<path d="M46.7389 30.3075C46.6749 30.1533 46.5847 30.0116 46.4694 29.8964C45.9818 29.4089 45.1222 29.4215 44.6472 29.8964C44.5319 30.0118 44.4416 30.1533 44.3777 30.3075C44.3138 30.4616 44.275 30.6282 44.275 30.795C44.275 31.1409 44.4028 31.4617 44.6472 31.7061C44.8904 31.9493 45.2112 32.0783 45.5583 32.0783C45.7249 32.0783 45.8917 32.052 46.0459 31.9881C46.2 31.9242 46.3403 31.8213 46.4695 31.7061C46.7127 31.4617 46.8417 31.1408 46.8417 30.795C46.8417 30.6282 46.8028 30.4616 46.7389 30.3075Z" fill="white"/>
<path d="M43.5557 42.4853C43.4391 42.4277 40.6907 41.0667 37.8533 41.0667C35.0159 41.0667 32.2651 42.4277 32.1485 42.4853C31.5157 42.8024 31.26 43.5707 31.5759 44.2048C31.8917 44.839 32.5791 45.0958 33.2169 44.7826C33.2351 44.7725 34.8105 44.0321 36.4147 43.7455V48.7666C36.4147 49.476 36.9887 50.0498 37.698 50.0498C38.4074 50.0498 38.9812 49.4758 38.9812 48.7666V43.7455C40.9062 44.0321 42.3205 44.7725 42.3387 44.7826C42.5229 44.8728 42.7573 44.9166 42.949 44.9166C43.4215 44.9166 43.8953 44.6559 44.1195 44.2048C44.4355 43.5707 44.1885 42.8024 43.5557 42.4853Z" fill="white"/>
<path d="M55.1395 21.9646C54.929 21.853 49.9322 19.25 45.5584 19.25C42.1966 19.25 39.2026 20.7739 37.8584 21.5773C36.5142 20.7739 33.5203 19.25 30.1584 19.25C25.7846 19.25 20.7879 21.853 20.5773 21.9646C19.9507 22.2942 19.71 23.0699 20.0397 23.6966C20.269 24.1339 20.7153 24.3834 21.1764 24.3834C21.3782 24.3834 21.5824 24.3358 21.7716 24.2356C21.8179 24.2118 26.425 21.8169 30.1584 21.8169C33.7866 21.8169 37.0814 24.1228 37.114 24.1455C37.1259 24.1536 37.1387 24.1583 37.1507 24.1661C37.1886 24.1915 37.2282 24.2121 37.2679 24.2332C37.3039 24.2517 37.339 24.2708 37.376 24.2858C37.4142 24.3015 37.4537 24.3124 37.4931 24.3243C37.5339 24.3365 37.574 24.349 37.615 24.3573C37.6545 24.3648 37.6939 24.3676 37.7338 24.3717C37.7754 24.3758 37.8168 24.3804 37.8584 24.3804C37.9004 24.3804 37.9421 24.3758 37.9837 24.3717C38.0233 24.3676 38.0624 24.3648 38.1015 24.3573C38.1434 24.3491 38.1848 24.3359 38.2261 24.3237C38.2643 24.3121 38.3025 24.3015 38.3395 24.2864C38.378 24.2708 38.415 24.2508 38.4523 24.2312C38.4905 24.2112 38.5281 24.1911 38.5645 24.167C38.577 24.1589 38.5905 24.1542 38.6027 24.1454C38.6354 24.1228 41.9301 21.8167 45.5583 21.8167C49.2917 21.8167 53.8987 24.2117 53.9451 24.2354C54.1357 24.3358 54.3387 24.3833 54.5404 24.3833C55.0016 24.3833 55.4477 24.1339 55.677 23.6964C56.0067 23.0699 55.7661 22.2942 55.1395 21.9646Z" fill="white"/>
<path d="M56.5118 46.9569C56.0444 46.4519 55.9128 46.1599 55.8877 46.0019C55.696 44.7763 55.7211 43.5743 55.9617 42.4252C60.0147 38.8861 62.2417 34.3166 62.2417 29.5167C62.2417 18.9017 51.3034 10.2667 37.8584 10.2667C24.4135 10.2667 13.4751 18.9017 13.4751 29.5167C13.4751 34.3581 15.736 38.9563 19.8517 42.5079C20.0747 43.6309 20.0949 44.8039 19.9069 46.0033C19.8242 46.5334 18.8793 47.3819 18.0446 48.1301C17.5521 48.5726 17.0445 49.0299 16.6535 49.4435C14.544 51.3246 13.475 53.5353 13.475 56.013C13.475 64.3108 25.4022 71.8667 38.5 71.8667C51.5978 71.8667 63.525 64.3108 63.525 56.013C63.525 52.292 61.1011 49.1653 56.5118 46.9569ZM38.5 69.3C25.8521 69.3 16.0417 62.1577 16.0417 56.013C16.0417 54.2985 16.8225 52.7319 18.4355 51.2882C18.8528 50.852 19.3141 50.4397 19.7589 50.0411C21.0248 48.9057 22.2204 47.8329 22.4434 46.3979C22.7054 44.7223 22.6415 43.0743 22.2566 41.5015C22.1901 41.2346 22.0411 40.9951 21.8292 40.8198C18.097 37.7255 16.0417 33.7113 16.0417 29.5167C16.0417 20.3178 25.8284 12.8334 37.8584 12.8334C49.8885 12.8334 59.675 20.3178 59.675 29.5167C59.675 33.6738 57.6534 37.6604 53.9815 40.7422C53.7747 40.9151 53.6281 41.1482 53.5616 41.4089C53.1556 43.0117 53.0853 44.6899 53.3511 46.3993C53.5191 47.4595 54.2295 48.2992 54.8299 48.912C54.9377 49.0222 55.0642 49.1125 55.2033 49.1777C57.8288 50.4046 60.9583 52.5879 60.9583 56.013C60.9583 62.1577 51.1478 69.3 38.5 69.3Z" fill="white"/>
<path d="M51.975 56.4178H26.3083C25.5989 56.4178 25.025 56.9919 25.025 57.7011C25.025 58.4104 25.599 58.9844 26.3083 58.9844H51.975C52.6844 58.9844 53.2583 58.4104 53.2583 57.7011C53.2583 56.9919 52.6844 56.4178 51.975 56.4178Z" fill="white"/>
<path d="M69.9417 31.4417C69.9417 14.1041 55.8375 0 38.5 0C21.1625 0 7.05828 14.1041 7.05828 31.4417C7.05828 37.0802 8.55843 42.5807 11.4071 47.4057C9.39821 50.2017 8.34171 53.3172 8.34171 56.4667C8.34171 67.7886 21.8706 77 38.5 77C55.1294 77 68.6583 67.7886 68.6583 56.4667C68.6583 53.3172 67.6018 50.2029 65.5941 47.4057C68.4402 42.5819 69.9417 37.0826 69.9417 31.4417ZM66.0917 56.4667C66.0917 66.3737 53.7146 74.4334 38.5 74.4334C23.2854 74.4334 10.9083 66.3737 10.9083 56.4667C10.9083 53.5893 11.9359 50.8346 13.9612 48.2791C14.2996 47.8531 14.3322 47.2591 14.0427 46.799C11.1527 42.2046 9.625 36.8946 9.625 31.4417C9.625 15.5203 22.5786 2.56672 38.5 2.56672C54.4214 2.56672 67.375 15.5203 67.375 31.4417C67.375 36.8971 65.8473 42.2071 62.9573 46.7992C62.6678 47.259 62.7004 47.8531 63.0388 48.2793C65.064 50.8346 66.0917 53.5891 66.0917 56.4667Z" fill="white"/>
</svg>
