<svg width="77" height="77" viewBox="0 0 77 77" fill="none" xmlns="http://www.w3.org/2000/svg">
<g clip-path="url(#clip0_6_73)">
<path d="M44.463 47.5714C41.814 47.5714 39.4795 48.7039 38.1129 50.4177C36.7463 48.704 34.4109 47.5714 31.7616 47.5714C27.558 47.5714 24.1391 50.4215 24.1391 53.9239C24.1391 54.6262 24.7077 55.1944 25.4099 55.1944C26.1122 55.1944 26.6807 54.6262 26.6807 53.9239C26.6807 51.8222 28.8804 50.1124 31.6832 50.1124C34.4861 50.1124 36.6858 51.8222 36.6858 53.9239V59.0059C36.6858 59.7082 37.2542 60.2764 37.9563 60.2764C38.6587 60.2764 39.2268 59.7082 39.2268 59.0059V53.9239C39.2268 51.8222 41.5854 50.1124 44.3883 50.1124C47.1911 50.1124 49.51 51.8222 49.51 53.9239C49.51 54.6262 50.0981 55.1944 50.8003 55.1944C51.5025 55.1944 52.0807 54.6262 52.0807 53.9239C52.081 50.4213 48.6666 47.5714 44.463 47.5714Z" fill="white"/>
<path d="M26.6808 29.7843C23.1782 29.7843 20.3283 32.6343 20.3283 36.1368C20.3283 39.6394 23.1784 42.4893 26.6808 42.4893C30.1834 42.4893 33.0333 39.6394 33.0333 36.1368C33.0333 32.6342 30.1834 29.7843 26.6808 29.7843ZM26.6808 39.9483C24.5789 39.9483 22.8693 38.2385 22.8693 36.1368C22.8693 34.0351 24.5791 32.3253 26.6808 32.3253C28.7827 32.3253 30.4923 34.0351 30.4923 36.1368C30.4923 38.2386 28.7825 39.9483 26.6808 39.9483Z" fill="white"/>
<path d="M29.12 35.6492C29.0567 35.4965 28.9673 35.3564 28.8532 35.2422C28.3706 34.7596 27.5319 34.7596 27.0493 35.2422C26.8198 35.4705 26.6808 35.8018 26.6808 36.1318C26.6808 36.4742 26.8073 36.7919 27.0493 37.0338C27.2899 37.2745 27.6075 37.4023 27.9513 37.4023C28.2937 37.4023 28.6114 37.2745 28.8533 37.0338C29.0941 36.7919 29.2218 36.4742 29.2218 36.1318C29.2218 35.9668 29.1833 35.8018 29.12 35.6492Z" fill="white"/>
<path d="M49.55 29.7843C46.0474 29.7843 43.1974 32.6343 43.1974 36.1368C43.1974 39.6394 46.0475 42.4893 49.55 42.4893C53.0525 42.4893 55.9025 39.6394 55.9025 36.1368C55.9026 32.6342 53.0525 29.7843 49.55 29.7843ZM49.55 39.9483C47.4481 39.9483 45.7385 38.2385 45.7385 36.1368C45.7385 34.0351 47.4482 32.3253 49.55 32.3253C51.6518 32.3253 53.3615 34.0351 53.3615 36.1368C53.3615 38.2386 51.6518 39.9483 49.55 39.9483Z" fill="white"/>
<path d="M49.4483 35.6492C49.385 35.4965 49.2956 35.3564 49.1815 35.2422C49.1182 35.1789 49.0537 35.1281 48.978 35.0772C48.9147 35.0387 48.8379 34.9879 48.7621 34.9631C48.6851 34.9371 48.6094 34.9123 48.5201 34.8861C48.3551 34.8613 48.1901 34.8613 48.025 34.8861C47.9493 34.9121 47.8723 34.9369 47.7967 34.9631C47.7197 34.9879 47.6441 35.0387 47.5672 35.0772C47.5039 35.1281 47.4407 35.1789 47.3774 35.2422C47.2633 35.3564 47.1739 35.4965 47.1106 35.6492C47.0473 35.8018 47.009 35.9668 47.009 36.1318C47.009 36.4742 47.1354 36.7919 47.3774 37.0338C47.6182 37.2745 47.9358 37.4023 48.2795 37.4023C48.6219 37.4023 48.9395 37.2745 49.1815 37.0338C49.4223 36.7919 49.55 36.4742 49.55 36.1318C49.55 35.9668 49.5115 35.8018 49.4483 35.6492Z" fill="white"/>
<path d="M77 19.6201C77 12.6149 71.3 6.91496 64.2949 6.91496C60.9204 6.91496 57.6662 8.27704 55.2905 10.6619C52.166 8.65904 48.6538 7.17769 44.8575 6.36032L45.7136 2.0823C45.8054 1.62451 45.6392 1.15424 45.2807 0.85647C44.9221 0.55629 44.4295 0.481697 43.9965 0.652992C40.5447 2.03388 38.7543 3.47808 37.8288 4.64075C34.3796 -0.193106 27.3943 -0.1907 23.8643 0.592234C23.2924 0.720066 22.8804 1.22252 22.8692 1.80814C22.858 2.39497 23.2487 2.91246 23.8159 3.06135C25.7291 3.56516 28.8085 4.60481 29.6659 5.33811C29.8124 5.46459 30.1262 5.79229 30.537 6.55402C27.2536 7.3562 24.1924 8.66671 21.4219 10.3821C19.0754 8.17087 15.9465 6.91496 12.7052 6.91496C5.69995 6.91496 0 12.6149 0 19.6201C0 24.4884 2.71997 28.8375 7.01256 30.9806C6.5823 33.0635 6.3525 35.2128 6.3525 37.4073C6.3525 46.2347 10.0659 54.7232 16.5442 60.7201C16.5258 61.0088 16.5165 61.2849 16.5165 61.5471C16.5165 69.9543 26.2054 76.7932 38.1152 76.7932C50.0249 76.7932 59.7141 69.9542 59.7141 61.5471C59.7141 61.2846 59.7048 61.0084 59.6864 60.7192C66.1702 54.715 69.8781 46.2565 69.8781 37.4073C69.8781 35.3231 69.6712 33.2837 69.2875 31.3041C73.982 29.3 77 24.7484 77 19.6201ZM2.541 19.6201C2.541 14.0156 7.10069 9.45596 12.7052 9.45596C15.1066 9.45596 17.4315 10.3189 19.2538 11.8515C13.7269 15.9416 9.61673 21.7615 7.64917 28.4374C4.50691 26.6439 2.541 23.3206 2.541 19.6201ZM38.1153 74.2521C27.6063 74.2521 19.0576 68.5521 19.0576 61.5469C19.0576 59.6163 19.6929 56.6076 20.7984 53.2899C20.9386 52.8718 20.8505 52.4102 20.5676 52.0728C17.1357 47.9734 15.246 42.7648 15.246 37.4073C15.246 24.7976 25.5056 14.5381 38.1152 14.5381C50.7247 14.5381 60.9845 24.7978 60.9845 37.4073C60.9845 42.7648 59.0948 47.9722 55.6642 52.0728C55.3813 52.4102 55.2932 52.8718 55.4334 53.29C56.5389 56.6052 57.173 59.6141 57.173 61.5471C57.1731 68.5523 48.6244 74.2521 38.1153 74.2521ZM59.242 57.594C58.9638 56.2336 58.5677 54.7366 58.0615 53.1523C61.5901 48.6843 63.5256 43.1221 63.5256 37.4073C63.5256 23.3957 52.127 11.997 38.1153 11.997C24.1036 11.997 12.7052 23.3957 12.7052 37.4073C12.7052 43.1221 14.6407 48.6855 18.1706 53.1523C17.665 54.7363 17.2689 56.2327 16.9904 57.5925C11.8246 52.1789 8.89365 44.9271 8.89365 37.4074C8.89365 23.4045 18.8593 11.3334 32.5892 8.70671C32.9626 8.63467 33.2828 8.40142 33.4652 8.0689C33.6476 7.73639 33.6711 7.33936 33.5309 6.98699C32.8522 5.28969 32.109 4.08611 31.3187 3.40875C31.202 3.30949 31.0706 3.21023 30.9266 3.11218C33.1526 3.62712 35.366 4.80513 36.4975 7.40072C36.6998 7.86347 37.1614 8.13718 37.6662 8.13718C37.67 8.13718 37.6738 8.13718 37.6762 8.13718L38.1153 8.16019C38.8176 8.16019 39.3808 7.69894 39.3808 6.99662C39.3832 6.98173 39.6351 5.6631 42.7333 4.01798L42.1154 7.11182C42.0483 7.44809 42.1191 7.7982 42.3127 8.08109C42.5063 8.36397 42.8066 8.55692 43.1441 8.61527C57.1632 11.0462 67.3371 23.1549 67.3371 37.4071C67.3371 44.9454 64.4131 52.1782 59.242 57.594ZM68.6927 28.7839C66.8229 22.1065 62.8299 16.2835 57.4113 12.1469C59.2795 10.43 61.7445 9.45611 64.2949 9.45611C69.8993 9.45611 74.459 14.0158 74.459 19.6203C74.459 23.5734 72.2164 27.098 68.6927 28.7839Z" fill="white"/>
<path d="M53.3628 59.0035C52.6817 58.8385 51.9942 59.2592 51.8305 59.9427C50.5475 65.2889 44.7794 69.1701 38.1154 69.1701C31.547 69.1701 25.795 65.3548 24.4401 60.0991C24.2639 59.4192 23.5716 59.0134 22.8917 59.1859C22.213 59.362 21.8036 60.0544 21.9785 60.7343C23.62 67.0944 30.4057 71.7111 38.1156 71.7111C45.9409 71.7111 52.7488 67.0112 54.3023 60.5358C54.4658 59.8534 54.0451 59.1673 53.3628 59.0035Z" fill="white"/>
<path d="M45.7385 22.1611C42.7657 22.1611 40.023 22.9236 38.1135 24.2639C36.205 22.9257 33.4487 22.1611 30.4923 22.1611C24.7923 22.1611 20.3282 24.9516 20.3282 28.5136C20.3282 29.2159 20.8965 29.7841 21.5987 29.7841C22.3008 29.7841 22.8692 29.2159 22.8692 28.5136C22.8692 26.7109 25.9995 24.7021 30.4922 24.7021C32.9873 24.7021 35.3496 25.3572 36.8099 26.454C37.1257 26.69 37.5152 26.7521 37.8717 26.6662C38.3104 26.915 38.8724 26.8895 39.2914 26.5546C40.7405 25.3945 43.1513 24.7021 45.7382 24.7021C50.2308 24.7021 53.3612 26.7109 53.3612 28.5136C53.3612 29.2159 53.9295 29.7841 54.6317 29.7841C55.3338 29.7841 55.9022 29.2159 55.9022 28.5136C55.9026 24.9516 51.4384 22.1611 45.7385 22.1611Z" fill="white"/>
</g>
<defs>
<clipPath id="clip0_6_73">
<rect width="77" height="77" fill="white"/>
</clipPath>
</defs>
</svg>
