<svg width="64" height="64" viewBox="0 0 64 64" fill="none" xmlns="http://www.w3.org/2000/svg">
<path d="M32.35 2.70178C16.2836 2.70178 3.23203 15.7534 3.23203 31.8198C3.23203 47.8862 16.2836 60.9378 32.35 60.9378C48.4165 60.9378 61.468 47.8862 61.468 31.8198C61.468 15.7534 48.4165 2.70178 32.35 2.70178ZM32.35 5.23378C47.0481 5.23378 58.936 17.1217 58.936 31.8198C58.936 46.5178 47.0481 58.4058 32.35 58.4058C17.652 58.4058 5.76403 46.5178 5.76403 31.8198C5.76403 17.1217 17.652 5.23378 32.35 5.23378ZM43.8553 17.9383C42.9894 17.9383 42.0163 18.1389 40.8782 18.549C39.1109 19.1858 18.3237 28.0119 15.9588 29.0158C14.6067 29.5906 12.0891 30.6597 12.0891 33.2094C12.0891 34.8995 13.0794 36.1084 15.0291 36.8047C16.0773 37.1781 18.567 37.9328 20.0115 38.3303C20.6242 38.4987 21.2754 38.585 21.9451 38.585C23.2554 38.585 24.574 38.2585 25.6071 37.6824C25.5982 37.8951 25.604 38.1101 25.6293 38.3253C25.7851 39.6546 26.6048 40.9049 27.8201 41.6708C28.6152 42.1722 35.109 46.5233 36.0788 47.2145C37.441 48.1881 38.9469 48.7031 40.4307 48.7031C43.2665 48.7031 44.2179 45.775 44.6762 44.3685C45.3409 42.3265 47.8297 25.7204 48.1107 22.7921C48.3019 20.7855 47.4656 19.1331 45.873 18.371C45.2767 18.0836 44.5959 17.9383 43.8553 17.9383ZM43.8553 20.4703C44.2034 20.4703 44.5143 20.5279 44.7776 20.6557C45.3764 20.9431 45.681 21.5838 45.5886 22.5523C45.2823 25.7464 42.7995 41.9591 42.2703 43.5847C41.8171 44.9748 41.3397 46.1711 40.4307 46.1711C39.5217 46.1711 38.5286 45.8524 37.55 45.1523C36.5714 44.4535 30.0728 40.0955 29.1702 39.5271C28.3789 39.0282 27.5415 37.7848 28.7202 36.5821C29.6912 35.5921 37.0568 28.4433 37.686 27.8141C38.1544 27.3444 37.9354 26.778 37.4758 26.778C37.3176 26.778 37.1281 26.8447 36.9319 27.0055C36.1621 27.6347 25.4311 34.8155 24.5018 35.3928C23.8865 35.7751 22.9338 36.0505 21.9451 36.0505C21.5235 36.0505 21.0967 36 20.6865 35.8873C19.2585 35.4936 16.8418 34.7604 15.8821 34.4185C14.9592 34.0894 14.6236 33.7741 14.6236 33.2094C14.6236 32.4068 15.7565 31.8527 16.9503 31.345C18.2113 30.8095 40.0297 21.5442 41.7362 20.9302C42.5262 20.6441 43.2489 20.4703 43.8553 20.4703Z" fill="white"/>
</svg>
