<svg width="65" height="64" viewBox="0 0 65 64" fill="none" xmlns="http://www.w3.org/2000/svg">
<path d="M32.4834 2.53198C16.417 2.53198 3.36543 15.5835 3.36543 31.65C3.36543 47.7164 16.417 60.768 32.4834 60.768C48.5499 60.768 61.6014 47.7164 61.6014 31.65C61.6014 15.5835 48.5499 2.53198 32.4834 2.53198ZM32.4834 5.06398C47.1815 5.06398 59.0694 16.9519 59.0694 31.65C59.0694 46.348 47.1815 58.236 32.4834 58.236C17.7854 58.236 5.89743 46.348 5.89743 31.65C5.89743 16.9519 17.7854 5.06398 32.4834 5.06398ZM19.8259 22.788L14.7174 22.7905C14.7174 22.7905 14.4251 22.774 14.072 22.8201C13.719 22.8663 13.1974 22.8877 12.6626 23.4927L12.6601 23.4952L12.6577 23.4976C12.182 24.0417 12.2001 24.6748 12.2596 25.0233C12.3188 25.3704 12.4515 25.6296 12.4524 25.6315V25.634C12.5016 25.7545 16.2107 34.8427 20.8867 39.7257C24.1849 43.1722 27.7124 44.31 30.854 44.31H32.4834C33.0195 44.31 33.4983 44.2856 34.0288 44.0108C34.5594 43.736 35.0154 42.9776 35.0154 42.3887C35.0154 41.7542 35.031 41.1392 35.1119 40.7963C35.1874 40.4762 35.1582 40.5548 35.1885 40.554C35.2189 40.5606 35.2741 40.5734 35.3789 40.6208C35.6048 40.7229 35.9537 40.9508 36.3408 41.2513C37.1137 41.8513 38.0292 42.7219 39.0558 43.3951C40.5261 44.3696 42.1218 44.31 42.1218 44.31H47.3837L47.4405 44.305C47.4405 44.305 48.2479 44.2867 49.0774 43.7784C49.4922 43.5242 49.9851 43.058 50.1506 42.3591C50.3161 41.6602 50.1047 40.9269 49.6981 40.282C49.5495 40.0455 48.8283 39.0002 45.9495 36.4445C45.2058 35.7849 44.6986 35.3179 44.4981 35.0697C44.4269 34.9815 44.4209 34.99 44.4066 34.9856C44.4234 34.9423 44.5897 34.5921 45.0346 34.0138C45.4984 33.4112 46.2031 32.5716 47.1092 31.4176C48.2641 29.9462 49.0744 28.5314 49.5843 27.3377C49.8393 26.7408 50.02 26.1992 50.1283 25.7082C50.2366 25.2172 50.323 24.8091 50.1629 24.2271C50.0435 23.7938 49.7192 23.4058 49.4013 23.2009C49.0835 22.9961 48.7871 22.9189 48.5211 22.8696C47.9891 22.7709 47.5196 22.788 47.082 22.788C46.1657 22.788 42.0921 22.8201 41.7559 22.8201C41.3613 22.8201 40.7317 22.9845 40.4404 23.1515C39.7172 23.5656 39.4909 24.1331 39.4909 24.1331L39.4217 24.2543L39.3821 24.3903C39.3821 24.3903 38.4546 27.3909 37.5005 28.9375H37.498C36.3761 30.7594 35.5392 31.4821 35.1712 31.6871C35.1321 31.7088 35.1538 31.6973 35.1267 31.7118C35.0979 31.628 35.0616 31.5126 35.0377 31.2989C34.9839 30.8175 35.0154 30.1396 35.0154 29.4839C35.0154 27.668 35.1518 26.5356 35.0006 25.4634C34.925 24.9273 34.7325 24.3303 34.2934 23.871C33.8543 23.4117 33.2872 23.1856 32.7208 23.055H32.7183C32.1281 22.9191 31.492 22.8024 29.9638 22.788C28.0167 22.7698 26.7486 22.8302 25.6218 23.332L25.6094 23.3394L25.5996 23.3443C25.1543 23.5535 24.8034 23.7932 24.4943 24.1133C24.3397 24.2734 24.1564 24.39 24.0294 24.8996C23.9659 25.1545 23.959 25.6366 24.247 26.0272C24.5351 26.4177 24.9387 26.5355 25.1767 26.5662C25.1328 26.5605 25.364 26.6114 25.5427 26.6997C25.7214 26.7881 25.8766 26.9153 25.9161 26.9668V26.9692C25.8995 26.9478 26.0711 27.3742 26.1163 27.763C26.1615 28.1517 26.1534 28.4652 26.1534 28.4652L26.151 28.5419L26.1584 28.6185C26.1584 28.6185 26.2361 29.4787 26.1955 30.3667C26.1751 30.8107 26.119 31.2575 26.0446 31.5313C26.0407 31.5458 26.0389 31.5407 26.0347 31.5535C25.7178 31.3322 24.9869 30.5608 23.98 28.8979C23.0492 27.3596 22.1774 24.593 22.1774 24.593L22.1576 24.5312L22.1354 24.4719C22.1354 24.4719 21.9728 23.8538 21.2551 23.3493C20.5824 22.8757 19.9421 22.8102 19.9421 22.8102L19.8259 22.788ZM19.5317 25.32C19.6041 25.3465 19.7555 25.401 19.7839 25.4139L19.7542 25.3249C19.7542 25.3249 19.7932 25.4144 19.7938 25.4164C19.7941 25.4166 19.7986 25.4188 19.7987 25.4189V25.4214H19.8012C19.7376 25.3769 19.7915 25.421 19.7987 25.4313C19.8337 25.5505 20.6067 28.2133 21.8139 30.2084C22.9137 32.0247 23.7262 33.0422 24.613 33.6504C25.4989 34.258 26.6903 34.1954 27.2958 33.8803C28.1051 33.46 28.3313 32.7693 28.4876 32.194C28.644 31.6186 28.6997 31.0349 28.725 30.4829C28.7732 29.4296 28.6908 28.5679 28.683 28.4825C28.6842 28.4349 28.6955 28.0234 28.631 27.4687C28.5661 26.9098 28.4496 26.2152 27.9535 25.5178C28.5092 25.4352 28.8176 25.3095 29.9391 25.32C31.3692 25.3334 31.5867 25.3931 32.1496 25.5227C32.4562 25.5934 32.4902 25.652 32.4612 25.6216C32.4322 25.5913 32.4587 25.571 32.4933 25.817C32.5627 26.3088 32.4834 27.5703 32.4834 29.4839C32.4834 30.0234 32.4313 30.7841 32.5205 31.5807C32.6096 32.3769 32.8585 33.3956 33.8211 33.9916C34.3696 34.3311 35.4175 34.4478 36.4051 33.8976C37.3927 33.3475 38.4061 32.292 39.6541 30.2653C40.887 28.267 41.6242 25.6397 41.704 25.362C41.704 25.362 41.718 25.3529 41.7262 25.3472C41.7486 25.3483 41.7201 25.3521 41.7559 25.3521C42.2248 25.3521 46.2259 25.32 47.082 25.32C47.3175 25.32 47.4209 25.3327 47.5963 25.3398C47.5254 25.6131 47.4301 25.9314 47.2551 26.3412C46.8437 27.3044 46.1376 28.5536 45.1162 29.8548C44.236 30.9758 43.5522 31.7889 43.0293 32.4684C42.5064 33.148 42.0956 33.6839 41.924 34.4589C41.7525 35.2339 42.0798 36.108 42.5274 36.6621C42.9749 37.2161 43.5287 37.6828 44.2681 38.3385C47.0534 40.8113 47.5104 41.5598 47.5543 41.6296V41.6321C47.6013 41.7067 47.5708 41.6317 47.5889 41.6692C47.431 41.7184 47.243 41.7741 47.2254 41.778H42.1021H42.0947C42.0947 41.778 41.1523 41.7471 40.4528 41.2835L40.4503 41.281H40.4479C39.7078 40.7963 38.8134 39.965 37.8936 39.2509C37.4337 38.8939 36.9655 38.5593 36.4224 38.3138C35.8793 38.0683 35.191 37.8942 34.4665 38.111C33.4179 38.4249 32.836 39.4228 32.6491 40.2153C32.5149 40.7841 32.5348 41.2788 32.5304 41.7755C32.4943 41.7774 32.5256 41.778 32.4834 41.778H30.854C28.2808 41.778 25.6039 40.9925 22.7164 37.975C18.9625 34.0549 15.6133 26.4741 15.1105 25.3225L19.5317 25.32ZM41.615 25.3299C41.592 25.335 41.6577 25.34 41.7114 25.3447C41.7041 25.3486 41.712 25.3412 41.7015 25.3472C41.7004 25.326 41.6458 25.323 41.615 25.3299Z" fill="white"/>
</svg>
