<svg width="39" height="39" viewBox="0 0 39 39" fill="none" xmlns="http://www.w3.org/2000/svg">
<path d="M19.5 0C8.74769 0 0 8.74769 0 19.5C0 30.2523 8.74769 39 19.5 39C30.2523 39 39 30.2523 39 19.5C39 8.74769 30.2523 0 19.5 0ZM19.5 36.2536C10.262 36.2536 2.74641 28.738 2.74641 19.5C2.74641 10.262 10.262 2.74641 19.5 2.74641C28.738 2.74641 36.2536 10.262 36.2536 19.5C36.2536 28.738 28.738 36.2536 19.5 36.2536Z" fill="white"/>
<path d="M19.5 4.80627C11.3979 4.80627 4.80634 11.3978 4.80634 19.5C4.80634 27.6021 11.3979 34.1936 19.5 34.1936C27.6022 34.1936 34.1937 27.6021 34.1937 19.5C34.1937 11.3978 27.6022 4.80627 19.5 4.80627ZM29.263 27.2909L28.8247 26.8526C28.2885 26.3162 27.4189 26.3163 26.8827 26.8527C26.3464 27.389 26.3466 28.2585 26.8828 28.7947L27.3243 29.236C25.5173 30.6911 23.2988 31.6542 20.8733 31.9206V31.2412C20.8733 30.4829 20.2585 29.8679 19.5 29.8679C18.7415 29.8679 18.1267 30.4829 18.1267 31.2412V31.9206C15.6906 31.6531 13.4633 30.6827 11.6521 29.217L12.1474 28.7215C12.6837 28.1853 12.6835 27.3157 12.1473 26.7796C11.6111 26.2431 10.7414 26.2433 10.2053 26.7797L9.71797 27.2671C8.2885 25.4706 7.34291 23.2731 7.07937 20.8731H7.75878C8.51711 20.8731 9.13205 20.2583 9.13205 19.4998C9.13205 18.7414 8.51724 18.1265 7.75878 18.1265H7.07937C7.34567 15.7011 8.30885 13.4825 9.76393 11.6755L10.2053 12.117C10.4734 12.3853 10.8248 12.5193 11.1763 12.5193C11.5277 12.5193 11.8791 12.3853 12.1473 12.1171C12.6835 11.581 12.6837 10.7114 12.1474 10.1751L11.7091 9.73682C13.51 8.29671 15.7162 7.34377 18.1267 7.07917V7.65564C18.1267 8.41397 18.7415 9.02891 19.5 9.02891C20.2585 9.02891 20.8733 8.4141 20.8733 7.65564V7.07917C23.2733 7.34272 25.4707 8.2883 27.2673 9.71778L26.8828 10.1023C26.3466 10.6385 26.3467 11.5081 26.883 12.0443C27.1511 12.3125 27.5024 12.4465 27.8539 12.4465C28.2054 12.4465 28.5568 12.3124 28.825 12.0441L29.2171 11.6519C30.6828 13.4632 31.6532 15.6904 31.9207 18.1265H31.3442C30.5859 18.1265 29.9709 18.7414 29.9709 19.4998C29.9709 20.2583 30.5859 20.8732 31.3442 20.8732H31.9207C31.6559 23.2837 30.703 25.4899 29.263 27.2909Z" fill="white"/>
<path d="M25.1303 18.1267H20.8733V11.3978C20.8733 10.6395 20.2584 10.0245 19.5 10.0245C18.7415 10.0245 18.1267 10.6393 18.1267 11.3978V19.5C18.1267 20.2583 18.7415 20.8732 19.5 20.8732H25.1303C25.8886 20.8732 26.5036 20.2584 26.5036 19.5C26.5036 18.7415 25.8886 18.1267 25.1303 18.1267Z" fill="white"/>
</svg>
