<svg width="38" height="23" viewBox="0 0 38 23" fill="none" xmlns="http://www.w3.org/2000/svg">
<path d="M2.35528 22.6695H13.8795L7.03563 5.89136L0.224784 19.426L0.185054 19.5156C-0.115434 20.3019 -0.047683 21.1015 0.371578 21.7108C0.790107 22.32 1.5131 22.6695 2.35528 22.6695ZM1.9975 20.2541L6.84901 10.6124L10.9684 20.7138H2.35528C2.13697 20.7138 2.0182 20.6538 1.98254 20.6023C1.94919 20.554 1.9355 20.4355 1.9975 20.2541Z" fill="white"/>
<path d="M29.4391 3.58549L27.6191 3.52945C26.5418 1.1427 24.4887 -0.631268 21.5309 0.213841C20.3199 0.559183 20.835 2.44648 22.0504 2.09989C23.5751 1.66411 24.6937 2.3619 25.4309 3.46296L14.39 3.12462C13.2688 0.947286 11.2802 -0.581605 8.49207 0.214468C7.28144 0.559914 7.79657 2.44711 9.01159 2.10052C10.3365 1.72234 11.3541 2.20078 12.0815 3.05363L11.4022 3.03261L11.3071 3.03125C10.4877 3.03125 9.78613 3.37095 9.38182 3.96304C8.97375 4.56088 8.91457 5.34963 9.21882 6.12804L15.3809 21.8828L15.4834 22.1393C15.6782 22.6277 16.0152 23 18.3849 23L35.2149 22.9307C36.0604 22.9275 36.7799 22.5735 37.1898 21.9604C37.6005 21.348 37.6527 20.5471 37.3337 19.764L31.7344 6.02557C31.5056 5.46234 30.6621 3.62272 29.4391 3.58549ZM35.5229 20.5018C35.5987 20.6871 35.5974 20.8233 35.5643 20.8723C35.5318 20.9214 35.4058 20.9736 35.2065 20.9748L18.445 21.0435L18.3855 22.0215V21.0435C17.8236 21.0435 17.3951 21.0117 17.1287 20.9786L11.0411 5.41487C10.9567 5.20033 10.9822 5.08762 10.9978 5.06472C11.0115 5.04433 11.1121 4.99697 11.3428 4.98704L13.1308 5.04172C13.2706 5.48388 13.3682 5.93628 13.4237 6.37175C13.5815 7.60528 15.5392 7.62012 15.3794 6.37175C15.3253 5.94935 15.2426 5.52445 15.1337 5.1032L26.2833 5.44478C26.3629 5.75582 26.4234 6.06802 26.4615 6.37112C26.6194 7.60465 28.5771 7.6196 28.4173 6.37112C28.3803 6.08308 28.3263 5.7943 28.2645 5.50531L29.1869 5.53333C29.3557 5.7024 29.6683 6.13849 29.9229 6.76299L35.5229 20.5018Z" fill="white"/>
<path d="M22.6754 13.0421C21.8185 10.9416 21.5269 10.6378 20.8954 10.6177L17.997 10.5284L17.9019 10.5271C17.0822 10.5271 16.381 10.8668 15.9766 11.4583C15.5686 12.0561 15.5093 12.8456 15.8136 13.6235L16.7699 16.0681L16.7979 16.1388C17.0659 16.8061 17.4272 16.8061 19.4311 16.8061L20.7979 16.801C21.6427 16.7978 22.3628 16.4438 22.7729 15.8308C23.1834 15.2183 23.2351 14.4173 22.9167 13.6357L22.6754 13.0421ZM21.1481 14.7432C21.1151 14.7923 20.9896 14.8444 20.7891 14.8457L19.4311 14.8507C18.9866 14.8507 18.6416 14.8463 18.3895 14.8398L17.6351 12.9116C17.551 12.6969 17.5764 12.5843 17.5921 12.5613C17.6058 12.541 17.6917 12.4837 17.9331 12.4837C17.9337 12.4837 17.935 12.4837 17.9362 12.4837L20.3186 12.5569C20.4484 12.8172 20.6382 13.2272 20.8629 13.7799L21.1042 14.3732C21.1811 14.5586 21.1806 14.6948 21.1481 14.7432Z" fill="white"/>
<path d="M26.4724 10.529L26.377 10.5277C25.5576 10.5277 24.856 10.8673 24.4517 11.4594C24.0436 12.0572 23.9844 12.8461 24.2887 13.624L25.245 16.0688L25.2731 16.1394C25.5411 16.8067 25.9026 16.8067 27.9063 16.8067L29.2731 16.8016C30.1179 16.7983 30.838 16.4444 31.248 15.8313C31.6587 15.2188 31.7103 14.4178 31.3919 13.6362L31.1506 13.0428C30.2937 10.9422 30.0021 10.6385 29.3706 10.6184L26.4724 10.529ZM29.6232 14.7432C29.5901 14.7923 29.4647 14.8444 29.2641 14.8457L27.9062 14.8507C27.4618 14.8507 27.1167 14.8463 26.8646 14.8398L26.1101 12.9115C26.0261 12.6969 26.0515 12.5843 26.0675 12.5613C26.0809 12.541 26.1668 12.4837 26.4081 12.4837C26.4088 12.4837 26.4101 12.4837 26.4113 12.4837L28.7936 12.5569C28.9235 12.8172 29.1132 13.2272 29.3379 13.7799L29.5792 14.3732C29.6563 14.5586 29.6556 14.6948 29.6232 14.7432Z" fill="white"/>
</svg>
