<svg width="64" height="64" viewBox="0 0 64 64" fill="none" xmlns="http://www.w3.org/2000/svg">
<g clip-path="url(#clip0_6_113)">
<path d="M29.118 0.00952148C13.0541 0.00952148 0 13.0637 0 29.1275C0 45.1914 13.0541 58.2455 29.118 58.2455C45.1819 58.2455 58.236 45.1914 58.236 29.1275C58.236 13.0637 45.1819 0.00952148 29.118 0.00952148ZM29.118 2.54152C43.8129 2.54152 55.704 14.4326 55.704 29.1275C55.704 29.2179 55.6975 29.3069 55.6966 29.397C54.8868 29.3223 53.9512 29.2513 52.7615 29.2091C51.0794 29.1495 48.9591 29.1668 46.5552 29.2858C46.6443 28.665 46.7068 28.0354 46.7085 27.3892C46.8311 25.0185 46.035 22.8006 44.7402 20.8417C45.053 19.7608 45.42 18.3858 45.5117 16.8261C45.6163 15.0482 45.4628 13.0769 44.0355 11.7447L43.6696 11.4035H43.1701C39.7733 11.4035 37.4483 12.8255 36.0266 13.9528C33.9738 13.1582 31.6655 12.6695 29.118 12.6695C26.5561 12.6695 24.2256 13.1651 22.0882 13.9578C20.6673 12.8299 18.3403 11.4035 14.9398 11.4035H14.4428L14.0768 11.7423C12.6865 13.0333 12.5584 14.9505 12.6452 16.7197C12.7216 18.2798 13.0673 19.6985 13.3746 20.8318C12.058 22.829 11.2679 25.1042 11.2679 27.3546C11.2679 28.0023 11.3281 28.6339 11.4163 29.2561C9.13016 29.1501 7.09226 29.1296 5.47446 29.1869C4.2848 29.229 3.34913 29.2993 2.53942 29.3748C2.53866 29.2921 2.532 29.2104 2.532 29.1275C2.532 14.4326 14.4231 2.54152 29.118 2.54152ZM15.6939 14.1012C18.2482 14.3432 20.1699 15.4838 21.0596 16.2747L21.6531 16.7989L22.385 16.4997C24.3871 15.6753 26.6202 15.2015 29.118 15.2015C31.6158 15.2015 33.8495 15.6776 35.7002 16.4873L36.442 16.8137L37.0478 16.2747C37.9378 15.4835 39.8628 14.3426 42.4184 14.1012C42.7582 14.6645 43.0535 15.4657 42.9822 16.6777C42.8969 18.1282 42.5089 19.708 42.2157 20.6463L42.0253 21.2571L42.4036 21.7738C43.6563 23.482 44.295 25.3307 44.1864 27.2854L44.1839 27.32V27.3546C44.1839 30.5139 43.0463 33.0424 40.6233 34.916C38.2003 36.7896 34.3753 37.9895 28.9919 37.9895C23.6085 37.9895 19.781 36.7896 17.358 34.916C14.9351 33.0424 13.7999 30.5139 13.7999 27.3546C13.7999 25.5003 14.4695 23.4604 15.7063 21.7738L16.0772 21.2694L15.8992 20.6686C15.6058 19.6711 15.2462 18.0552 15.1747 16.5961C15.1152 15.3825 15.4024 14.6154 15.6939 14.1012ZM8.71611 30.4207C9.61079 30.4321 10.6362 30.4804 11.6635 30.532C11.7617 30.9267 11.8736 31.315 12.0097 31.6941C7.82258 31.7824 4.69019 32.2035 2.75948 32.5645C2.67785 31.9311 2.61283 31.2924 2.57651 30.6457C4.00335 30.5103 6.01476 30.3862 8.71611 30.4207ZM49.5199 30.4405C52.2194 30.4062 54.23 30.5304 55.657 30.6655C55.6207 31.3029 55.5568 31.9326 55.4765 32.5571C53.4768 32.1902 50.2598 31.7693 45.9642 31.7016C46.0975 31.33 46.2085 30.9483 46.3054 30.5617C47.4387 30.5009 48.5442 30.4529 49.5199 30.4405ZM12.5487 32.9502C13.3042 34.4641 14.3837 35.8158 15.8102 36.9189C17.7605 38.427 20.296 39.4807 23.3913 40.0443C22.9864 40.4604 22.6181 40.9173 22.291 41.3993L22.2143 41.3326C22.2213 41.3246 21.585 41.643 20.6343 41.7282C19.6836 41.8133 18.511 41.7875 17.4718 41.7875C15.9209 41.7875 15.2378 41.0548 14.1461 39.7204C13.5415 38.9055 12.8045 38.2457 12.0888 37.7447C11.356 37.2318 10.7309 36.8698 9.95739 36.7408L9.85354 36.7235H9.74721C9.15641 36.7235 8.58473 36.7663 8.05097 37.3763C7.78409 37.6813 7.60015 38.246 7.71963 38.7239C7.83912 39.2018 8.14146 39.4955 8.41198 39.6759C10.1422 40.8294 10.448 43.1124 11.5325 45.1429C12.5452 47.1608 14.7307 48.1175 16.9649 48.1175H20.256V54.1978C11.3532 51.0553 4.63948 43.3126 2.95235 33.8157C4.89047 33.4506 8.136 33.0117 12.5487 32.9502ZM45.4276 32.9601C49.9381 32.9987 53.2746 33.4371 55.2861 33.8083C53.6012 43.3086 46.8851 51.0545 37.98 54.1978V47.6106C37.98 45.6046 37.3212 43.3924 36.175 41.5477C35.8269 40.9876 35.4175 40.4579 34.9609 39.9825C37.892 39.4034 40.2998 38.3678 42.1736 36.9189C43.597 35.8182 44.6741 34.4706 45.4276 32.9601ZM27.4712 40.6476H31.017C32.046 40.6476 33.1444 41.4677 34.0238 42.8829C34.9031 44.2981 35.448 46.1985 35.448 47.6106V54.9519C33.4191 55.4467 31.3003 55.7135 29.118 55.7135C26.9357 55.7135 24.8169 55.4467 22.788 54.9519V47.6106C22.788 46.2298 23.3803 44.3338 24.3186 42.9126C25.2569 41.4913 26.4422 40.6476 27.4712 40.6476ZM13.0507 42.1436C14.1467 43.2805 15.4737 44.3195 17.4718 44.3195C18.4582 44.3195 19.6894 44.3551 20.8593 44.2503C20.8635 44.2499 20.8675 44.2482 20.8717 44.2478C20.7176 44.6909 20.6026 45.1368 20.5057 45.5855H16.9649C15.4035 45.5855 14.3004 45.0214 13.7925 44.0055L13.7826 43.9882L13.7752 43.9734C13.567 43.5868 13.2938 42.8137 13.0507 42.1436Z" fill="white"/>
</g>
<defs>
<clipPath id="clip0_6_113">
<rect width="63.3" height="63.3" fill="white" transform="translate(0 0.00952148)"/>
</clipPath>
</defs>
</svg>
