<svg width="20" height="20" viewBox="0 0 20 20" fill="none" xmlns="http://www.w3.org/2000/svg">
<path fill-rule="evenodd" clip-rule="evenodd" d="M7 0H13C14.1046 0 15 0.814028 15 1.81818V2.72727H18C19.1046 2.72727 20 3.5413 20 4.54545V6.36364C20 7.36779 19.1046 8.18182 18 8.18182H17.9199L17 18.1818C17 19.1859 16.1046 20 15 20H5.00001C3.89544 20 3.00001 19.1859 3.00346 18.2573L2.07988 8.18182H2C0.89543 8.18182 0 7.36779 0 6.36364V4.54545C0 3.5413 0.89543 2.72727 2 2.72727H5V1.81818C5 0.814028 5.89543 0 7 0ZM5 4.54545V4.54543H2V6.36361H18V4.54543H15V4.54545H5ZM15.9132 8.18182H4.08649L5 18.1818H15L15.0035 18.1063L15.9132 8.18182ZM13 1.81818V2.72727H7V1.81818H13ZM6.29291 10.6428L7.70712 9.35713L10 11.4416L12.2929 9.35713L13.7071 10.6428L11.4142 12.7272L13.7071 14.8117L12.2929 16.0973L10 14.0129L7.70712 16.0973L6.29291 14.8117L8.5858 12.7272L6.29291 10.6428Z" fill="#AFAFAF"/>
</svg>
